<svg width="18" height="20" viewBox="0 0 18 20" fill="none" xmlns="http://www.w3.org/2000/svg">
<path d="M18 17H-2.45618e-06C-0.00136193 15.7335 0.265236 14.4811 0.782279 13.325C1.29932 12.1689 2.05511 11.1353 3 10.292V6C3 4.4087 3.63214 2.88258 4.75736 1.75736C5.88258 0.632141 7.4087 0 9 0C10.5913 0 12.1174 0.632141 13.2426 1.75736C14.3679 2.88258 15 4.4087 15 6V10.292C15.9449 11.1353 16.7007 12.1689 17.2177 13.325C17.7348 14.4811 18.0014 15.7335 18 17ZM6.17 18H11.83C11.6234 18.5855 11.2403 19.0926 10.7334 19.4512C10.2265 19.8099 9.62091 20.0025 9 20.0025C8.37908 20.0025 7.77346 19.8099 7.2666 19.4512C6.75974 19.0926 6.3766 18.5855 6.17 18Z" fill="#0B2556"/>
</svg>
