<svg width="34" height="33" viewBox="0 0 34 33" fill="none" xmlns="http://www.w3.org/2000/svg">
<path d="M13.7437 22.9665H20.0393H13.7437ZM16.8922 4.10539V5.45261V4.10539ZM25.4659 7.65667L24.5134 8.60916L25.4659 7.65667ZM29.0172 16.2304H27.6699H29.0172ZM6.11437 16.2304H4.76715H6.11437ZM9.27091 8.60916L8.31843 7.65667L9.27091 8.60916ZM12.1284 20.9942C11.1865 20.052 10.5451 18.8518 10.2853 17.5451C10.0256 16.2385 10.1591 14.8842 10.669 13.6534C11.1789 12.4227 12.0422 11.3707 13.15 10.6307C14.2577 9.89056 15.5599 9.49554 16.8922 9.49554C18.2244 9.49554 19.5266 9.89056 20.6343 10.6307C21.7421 11.3707 22.6054 12.4227 23.1153 13.6534C23.6252 14.8842 23.7587 16.2385 23.499 17.5451C23.2392 18.8518 22.5978 20.052 21.6559 20.9942L20.9177 21.7311C20.4956 22.1533 20.1608 22.6544 19.9324 23.2059C19.704 23.7575 19.5865 24.3486 19.5866 24.9456V25.6609C19.5866 26.3756 19.3027 27.0609 18.7974 27.5662C18.2921 28.0715 17.6068 28.3554 16.8922 28.3554C16.1775 28.3554 15.4922 28.0715 14.9869 27.5662C14.4816 27.0609 14.1977 26.3756 14.1977 25.6609V24.9456C14.1977 23.7398 13.7181 22.5825 12.8667 21.7311L12.1284 20.9942Z" stroke="white" stroke-width="2" stroke-linecap="round" stroke-linejoin="round"/>
</svg>
