<svg width="24" height="24" viewBox="0 0 24 24" fill="none" xmlns="http://www.w3.org/2000/svg">
<path d="M22.9684 5.48052C22.7862 5.45768 22.6202 5.58688 22.5975 5.76904L21.6845 13.0728H18.1898L17.736 10.4993C17.708 10.3404 17.5701 10.2247 17.4088 10.2247H6.6335C6.47255 10.2247 6.33474 10.3401 6.30641 10.4985L5.84656 13.0732C5.84374 13.0732 5.84122 13.0728 5.8384 13.0728H2.3345L1.42147 5.76904C1.39863 5.58688 1.23264 5.45783 1.05063 5.48052C0.868468 5.50322 0.739265 5.66936 0.762109 5.85152L1.71148 13.4465C1.73224 13.6126 1.87361 13.7373 2.04108 13.7373H2.9145L1.99851 19.2364C1.96825 19.4177 2.09063 19.5887 2.2716 19.6188C2.45258 19.6491 2.62376 19.5267 2.65387 19.3457L3.5887 13.7373H5.72849L5.75993 13.5602L4.40797 21.1314C4.38543 21.2575 4.43735 21.3854 4.54148 21.4598L4.55142 21.4671C5.78886 22.354 7.44224 22.3966 8.72374 21.5745C10.4387 22.4008 12.4374 22.3975 14.1498 21.5658C14.9132 21.9731 15.7623 22.1932 16.6274 22.2082C16.6573 22.2087 16.6871 22.209 16.717 22.209C17.6134 22.2084 18.4957 21.9873 19.2866 21.5652L19.4406 21.4828C19.5673 21.4152 19.6361 21.2737 19.6112 21.1322L18.3072 13.7373H20.4303L21.3656 19.3459C21.3956 19.5268 21.5667 19.6492 21.7479 19.619C21.9288 19.5887 22.0512 19.4177 22.021 19.2367L21.1045 13.7373H21.9778C22.1454 13.7373 22.2868 13.6126 22.3075 13.4463L23.2569 5.85137C23.2796 5.66921 23.1504 5.50322 22.9684 5.48052ZM9.0308 21.1899C9.0308 21.3735 8.88216 21.5222 8.69852 21.5222C8.51503 21.5222 8.36624 21.3735 8.36624 21.1899V17.1076C8.36624 16.9241 8.51503 16.7753 8.69852 16.7753C8.88216 16.7753 9.0308 16.9241 9.0308 17.1076V21.1899ZM14.4897 21.1899C14.4897 21.3735 14.341 21.5222 14.1574 21.5222C13.9739 21.5222 13.8251 21.3735 13.8251 21.1899V15.4462C13.8251 15.2627 13.9739 15.1139 14.1574 15.1139C14.341 15.1139 14.4897 15.2627 14.4897 15.4462V21.1899Z" fill="#12283D"/>
<path d="M8.92404 9.48419H14.6202C14.8039 9.48419 14.9525 9.33541 14.9525 9.15191C14.9503 7.52493 13.7222 6.16111 12.1044 5.98889V5.60143C12.1044 5.41779 11.9558 5.26915 11.7721 5.26915C11.5887 5.26915 11.4399 5.41779 11.4399 5.60143V5.98889C9.82209 6.16111 8.59399 7.52493 8.59177 9.15191C8.59177 9.33541 8.74055 9.48419 8.92404 9.48419Z" fill="#12283D"/>
<path d="M13.1962 4.86077C13.3798 4.86077 13.5285 4.71214 13.5285 4.5285V3.43672C13.5285 3.25323 13.3798 3.10445 13.1962 3.10445C13.0127 3.10445 12.8639 3.25323 12.8639 3.43672V4.5285C12.8639 4.71214 13.0127 4.86077 13.1962 4.86077Z" fill="#12283D"/>
<path d="M11.2499 4.05381C11.4336 4.05381 11.5822 3.90517 11.5822 3.72153V2.01267C11.5822 1.82917 11.4336 1.68039 11.2499 1.68039C11.0664 1.68039 10.9177 1.82917 10.9177 2.01267V3.72153C10.9177 3.90517 11.0664 4.05381 11.2499 4.05381Z" fill="#12283D"/>
<path d="M9.44623 5.19304C9.62987 5.19304 9.77851 5.04441 9.77851 4.86076V3.95887C9.77851 3.77537 9.62987 3.62659 9.44623 3.62659C9.26274 3.62659 9.11395 3.77537 9.11395 3.95887V4.86076C9.11395 5.04441 9.26274 5.19304 9.44623 5.19304Z" fill="#12283D"/>
</svg>
