<svg width="24" height="24" viewBox="0 0 24 24" fill="none" xmlns="http://www.w3.org/2000/svg">
<g clip-path="url(#clip0_1_154)">
<path d="M22.5 11.9555H1.5C0.672984 11.9555 0 12.6285 0 13.4555C0 14.2825 0.672984 14.9555 1.5 14.9555H22.5C23.327 14.9555 24 14.2825 24 13.4555C24 12.6285 23.327 11.9555 22.5 11.9555Z" fill="#12283D"/>
<path d="M22.638 13.9745C22.367 13.8985 22.095 14.0525 22.02 14.3185L21.981 14.4555H2.01995L1.97996 14.3185C1.90496 14.0525 1.63098 13.9005 1.36196 13.9745C1.09595 14.0505 0.942947 14.3275 1.01898 14.5925L2.39696 19.4165C2.82395 20.9115 4.20798 21.9555 5.76198 21.9555H18.237C19.7919 21.9555 21.1749 20.9115 21.602 19.4165L22.98 14.5925C23.057 14.3275 22.9029 14.0505 22.638 13.9745ZM5.76296 19.9555C5.09696 19.9555 4.50296 19.5085 4.32095 18.8675L3.67196 16.5935C3.59598 16.3275 3.74996 16.0515 4.01495 15.9755C4.28293 15.8995 4.55795 16.0545 4.63295 16.3195L5.28193 18.5935C5.34395 18.8065 5.54092 18.9565 5.76292 18.9565C6.03892 18.9565 6.26293 19.1805 6.26293 19.4565C6.26298 19.7325 6.03896 19.9555 5.76296 19.9555Z" fill="#12283D"/>
<path d="M6.72293 21.0075C6.47595 20.8865 6.17693 20.9835 6.05191 21.2315L5.05193 23.2315C4.92893 23.4785 5.02892 23.7785 5.27595 23.9025C5.34893 23.9385 5.42496 23.9556 5.49996 23.9556C5.68296 23.9556 5.85898 23.8545 5.94696 23.6786L6.94695 21.6786C7.06995 21.4315 6.96991 21.1315 6.72293 21.0075Z" fill="#12283D"/>
<path d="M18.9479 23.2325L17.9479 21.2325C17.8239 20.9845 17.5239 20.8855 17.2769 21.0085C17.0299 21.1325 16.9299 21.4325 17.0529 21.6795L18.0529 23.6795C18.1409 23.8545 18.3169 23.9555 18.4999 23.9555C18.5749 23.9555 18.6509 23.9385 18.7239 23.9035C18.9709 23.7795 19.0709 23.4795 18.9479 23.2325Z" fill="#12283D"/>
<path d="M20.0849 0.0444794C19.5749 0.0444794 19.0949 0.243464 18.7339 0.604495L17.1469 2.19149C16.9519 2.38649 16.9519 2.70351 17.1469 2.89851C17.3419 3.09351 17.6589 3.09351 17.8539 2.89851L19.4409 1.31249C19.6119 1.14051 19.8409 1.0455 20.0899 1.0455C20.5919 1.0455 20.9999 1.45349 20.9999 1.95548V12.4555C20.9999 12.7315 21.2239 12.9555 21.4999 12.9555C21.7759 12.9555 21.9999 12.7315 22.0009 12.4545V1.95449C22.0009 0.901495 21.1449 0.0444794 20.0849 0.0444794Z" fill="#12283D"/>
<path d="M18.354 2.69151L17.354 1.69153C17.24 1.57753 17.081 1.52451 16.919 1.55151L14.419 1.96153C14.2351 1.99153 14.084 2.12151 14.0251 2.29753C13.966 2.47354 14.011 2.66953 14.1411 2.80251L17.1411 5.89251C17.2361 5.99151 17.3671 6.04453 17.4991 6.04453C17.5461 6.04453 17.5941 6.03754 17.641 6.02353C17.819 5.97154 17.954 5.82454 17.99 5.64253L18.49 3.14254C18.523 2.97951 18.472 2.81048 18.354 2.69151Z" fill="#12283D"/>
<path d="M11.8529 6.10251C11.6579 5.90751 11.3409 5.90751 11.1459 6.10251L10.1459 7.1025C9.95091 7.2975 9.95091 7.61452 10.1459 7.80952C10.2439 7.9065 10.3719 7.95553 10.4999 7.95553C10.6279 7.95553 10.7559 7.90655 10.8529 7.80952L11.8529 6.80953C12.0479 6.61448 12.0479 6.29751 11.8529 6.10251Z" fill="#12283D"/>
<path d="M13.853 8.10248C13.658 7.90748 13.341 7.90748 13.146 8.10248L12.146 9.10247C11.951 9.29747 11.951 9.61448 12.146 9.80948C12.244 9.90647 12.372 9.9555 12.5 9.9555C12.628 9.9555 12.756 9.90652 12.853 9.80948L13.853 8.8095C14.048 8.6145 14.048 8.29748 13.853 8.10248Z" fill="#12283D"/>
<path d="M14.853 5.10249C14.658 4.90749 14.341 4.90749 14.146 5.10249L13.146 6.10247C12.951 6.29747 12.951 6.61449 13.146 6.80949C13.2441 6.90647 13.372 6.95551 13.5 6.95551C13.6281 6.95551 13.756 6.90652 13.8531 6.80949L14.853 5.8095C15.048 5.6145 15.048 5.29749 14.853 5.10249Z" fill="#12283D"/>
</g>
<defs>
<clipPath id="clip0_1_154">
<rect width="24" height="24" fill="white"/>
</clipPath>
</defs>
</svg>
