<svg width="24" height="24" viewBox="0 0 24 24" fill="none" xmlns="http://www.w3.org/2000/svg">
<g clip-path="url(#clip0_1_121)">
<path d="M20.0001 17.6001C19.9994 16.9376 19.4625 16.4008 18.8 16.4H14.0001C13.3376 16.4008 12.8008 16.9376 12.8 17.6001V18H20.0001V17.6001Z" fill="white"/>
<path d="M20.0001 15.2001C20.0015 14.6931 20.322 14.2421 20.8 14.0739V10.0001C20.7993 9.33765 20.2625 8.80078 19.6 8.80005H13.2001C12.5376 8.80078 12.0007 9.33765 12 10.0001V14.0739C12.4781 14.2421 12.7985 14.6931 12.8 15.2001V16.0104C13.1442 15.7458 13.5659 15.6015 14.0001 15.6H15.4343L14.5172 14.6829C14.3657 14.5259 14.3677 14.2764 14.5221 14.1222C14.6765 13.9678 14.9258 13.9656 15.0828 14.1172L16.0001 15.0344V13.2001C16.0001 12.9791 16.1792 12.8 16.4 12.8C16.621 12.8 16.8001 12.9791 16.8001 13.2001V15.0344L17.7173 14.1172C17.8742 13.9656 18.1236 13.9678 18.278 14.1222C18.4323 14.2764 18.4345 14.5259 18.2829 14.6829L17.3657 15.6H18.8C19.2341 15.6015 19.6558 15.7458 20.0001 16.0104V15.2001Z" fill="white"/>
<path d="M12.8 18.7999H20.0001V20.4001H12.8V18.7999Z" fill="white"/>
<path d="M10.0002 14.8C9.77936 14.8004 9.60046 14.9793 9.6001 15.2001V19.2001C9.60083 19.8625 10.1377 20.3994 10.8002 20.4001H12.0001V15.2001C11.9999 14.9793 11.8208 14.8004 11.6002 14.8H10.0002Z" fill="white"/>
<path d="M23.2 19.2001V15.2001C23.1999 14.9793 23.0208 14.8004 22.8001 14.8H21.2C20.9793 14.8004 20.8003 14.9793 20.8001 15.2001V20.4001H22.0002C22.6624 20.3994 23.1993 19.8625 23.2 19.2001Z" fill="white"/>
<path d="M23.6 23.1996H21.8697L21.2982 21.1997H20.2891L21.4319 23.1996H11.3681L12.5108 21.1997H11.5017L10.9303 23.1996H5.9434C5.76268 22.4944 5.12786 22.001 4.40001 21.9997H3.60003V3.18363C3.60058 1.93247 4.56774 0.894452 5.81578 0.805829C7.06382 0.717206 8.16813 1.60801 8.34556 2.84653L8.40397 3.25632C8.40873 3.27317 8.41459 3.28983 8.42173 3.30594C8.1284 3.47056 7.96983 3.80143 8.02531 4.13303L8.15861 4.92203L7.0164 6.88363C6.9384 7.01785 6.94499 7.18502 7.03325 7.31265C7.1215 7.44027 7.27568 7.50527 7.42875 7.47927L11.2663 6.83071C11.4193 6.8049 11.5437 6.69284 11.5851 6.54324C11.6266 6.39364 11.5777 6.23361 11.46 6.13253L9.73642 4.65524L9.60312 3.86643C9.56101 3.6218 9.4072 3.41068 9.18729 3.29569C9.19993 3.24589 9.20286 3.19407 9.1959 3.14316L9.13731 2.73319C8.90055 1.0792 7.42564 -0.110794 5.75902 0.00767463C4.09221 0.126144 2.80041 1.5128 2.80004 3.18363V21.9997H2.00006V21.1997C2.00006 20.9787 1.82098 20.7996 1.59997 20.7996C1.37915 20.7996 1.20007 20.9787 1.20007 21.1997V21.9997C1.20153 22.0672 1.22076 22.1333 1.25573 22.1912C0.859495 22.4001 0.569457 22.7662 0.456664 23.1996H0.400084C0.179077 23.1996 0 23.3786 0 23.5996C0 23.8205 0.179077 23.9995 0.400084 23.9995H23.6C23.8209 23.9995 23.9999 23.8205 23.9999 23.5996C23.9999 23.3786 23.8209 23.1996 23.6 23.1996Z" fill="white"/>
</g>
<defs>
<clipPath id="clip0_1_121">
<rect width="24" height="24" fill="white"/>
</clipPath>
</defs>
</svg>
