<svg width="21" height="21" viewBox="0 0 21 21" fill="none" xmlns="http://www.w3.org/2000/svg">
<path d="M11.4376 0.25238C12.2126 0.25238 12.9143 0.682784 13.3017 1.31814C13.4903 1.62557 13.6159 2.00474 13.5845 2.4044C13.5636 2.71183 13.6578 3.01926 13.8254 3.3062C14.3595 4.17725 15.5429 4.50518 16.4645 4.01329C17.5013 3.41892 18.8104 3.77759 19.4073 4.79211L20.109 6.00134C20.7164 7.01587 20.3813 8.31733 19.334 8.90145C18.4438 9.42408 18.1297 10.5821 18.6638 11.4634C18.8313 11.7401 19.0198 11.9758 19.3131 12.1192C19.6796 12.3139 19.9624 12.6214 20.1614 12.9288C20.5489 13.5642 20.5174 14.343 20.1404 15.0296L19.4073 16.2593C19.0198 16.9152 18.2972 17.3251 17.5537 17.3251C17.1871 17.3251 16.7787 17.2226 16.4436 17.0176C16.1713 16.8434 15.8571 16.7819 15.522 16.7819C14.4852 16.7819 13.6159 17.6325 13.5845 18.647C13.5845 19.8255 12.621 20.7478 11.4167 20.7478H9.99236C8.77753 20.7478 7.81404 19.8255 7.81404 18.647C7.79309 17.6325 6.92386 16.7819 5.88706 16.7819C5.54146 16.7819 5.22728 16.8434 4.96546 17.0176C4.63033 17.2226 4.21142 17.3251 3.85535 17.3251C3.10131 17.3251 2.3787 16.9152 1.99121 16.2593L1.26859 15.0296C0.881097 14.3635 0.860152 13.5642 1.24764 12.9288C1.41521 12.6214 1.72939 12.3139 2.08546 12.1192C2.3787 11.9758 2.56721 11.7401 2.74524 11.4634C3.26888 10.5821 2.9547 9.42408 2.06451 8.90145C1.02772 8.31733 0.692588 7.01587 1.28953 6.00134L1.99121 4.79211C2.59862 3.77759 3.89724 3.41892 4.94451 4.01329C5.85564 4.50518 7.03906 4.17725 7.57317 3.3062C7.74073 3.01926 7.83498 2.71183 7.81404 2.4044C7.79309 2.00474 7.90829 1.62557 8.10727 1.31814C8.49476 0.682784 9.19644 0.272876 9.96095 0.25238H11.4376ZM10.715 7.61023C9.07076 7.61023 7.74073 8.90145 7.74073 10.5103C7.74073 12.1192 9.07076 13.4002 10.715 13.4002C12.3592 13.4002 13.6578 12.1192 13.6578 10.5103C13.6578 8.90145 12.3592 7.61023 10.715 7.61023Z" fill="black"/>
</svg>
