<svg width="23" height="23" viewBox="0 0 23 23" fill="none" xmlns="http://www.w3.org/2000/svg">
<path fill-rule="evenodd" clip-rule="evenodd" d="M16.2288 0.168701C19.9869 0.168701 22.512 2.80673 22.512 6.73268V15.8818C22.512 19.8078 19.9869 22.4458 16.2288 22.4458H6.51805C2.75995 22.4458 0.234863 19.8078 0.234863 15.8818V6.73268C0.234863 2.80673 2.75995 0.168701 6.51805 0.168701H16.2288ZM16.2288 1.72292H6.51805C3.64585 1.72292 1.78908 3.68849 1.78908 6.73268V15.8818C1.78908 18.926 3.64585 20.8916 6.51805 20.8916H16.2288C19.102 20.8916 20.9578 18.926 20.9578 15.8818V6.73268C20.9578 3.68849 19.102 1.72292 16.2288 1.72292ZM6.57721 8.66768C7.00618 8.66768 7.35432 9.01583 7.35432 9.44479V16.5527C7.35432 16.9817 7.00618 17.3299 6.57721 17.3299C6.14825 17.3299 5.8001 16.9817 5.8001 16.5527V9.44479C5.8001 9.01583 6.14825 8.66768 6.57721 8.66768ZM11.4129 5.26498C11.8419 5.26498 12.19 5.61313 12.19 6.04209V16.5517C12.19 16.9807 11.8419 17.3288 11.4129 17.3288C10.9839 17.3288 10.6358 16.9807 10.6358 16.5517V6.04209C10.6358 5.61313 10.9839 5.26498 11.4129 5.26498ZM16.1691 12.4237C16.5981 12.4237 16.9462 12.7719 16.9462 13.2008V16.5517C16.9462 16.9807 16.5981 17.3288 16.1691 17.3288C15.7402 17.3288 15.392 16.9807 15.392 16.5517V13.2008C15.392 12.7719 15.7402 12.4237 16.1691 12.4237Z" fill="black"/>
</svg>
