<svg width="24" height="24" viewBox="0 0 24 24" fill="none" xmlns="http://www.w3.org/2000/svg">
<path d="M1.99171 13.4274H22.0083C22.8333 13.4274 23.502 12.7587 23.502 11.9337C23.502 11.1087 22.8333 10.4399 22.0083 10.4399H1.99171C1.16671 10.4399 0.49794 11.1087 0.49794 11.9337C0.497893 12.7587 1.16671 13.4274 1.99171 13.4274Z" fill="#12283D"/>
<path d="M13.4938 7.21794C13.0578 7.21794 12.7031 7.5726 12.7031 8.00858V9.0336H18.8221V8.00858C18.8221 7.5726 18.4675 7.21794 18.0315 7.21794H13.4938Z" fill="#12283D"/>
<path d="M3.77157 8.00864C3.77157 6.79725 4.75707 5.81175 5.96846 5.81175H10.5062C11.0827 5.81175 11.6077 6.03525 12 6.39975C12.3923 6.03525 12.9173 5.81175 13.4937 5.81175H18.0315C19.2428 5.81175 20.2283 6.79725 20.2283 8.00864V9.03365H22.5106V4.19053C22.5106 3.36553 21.8418 2.69676 21.0169 2.69676H2.98308C2.15808 2.69676 1.48932 3.36553 1.48932 4.19053V9.03365H3.77157V8.00864Z" fill="#12283D"/>
<path d="M5.96851 7.21794C5.53253 7.21794 5.17787 7.5726 5.17787 8.00858V9.0336H11.2969V8.00858C11.2969 7.5726 10.9422 7.21794 10.5062 7.21794H5.96851Z" fill="#12283D"/>
<path d="M0 14.8337V21.3032H1.40625V18.7393H22.5938V21.3032H24V14.8337H0Z" fill="#12283D"/>
</svg>
